<svg width="546" height="368" viewBox="0 0 546 368" fill="none" xmlns="http://www.w3.org/2000/svg">
<path d="M265.002 87.1867C256.836 47.02 221.502 -27.8135 180.002 16.6866C152.676 45.9877 187.502 91.1866 265.002 87.1867Z" fill="#406081" stroke="#1E3553" stroke-width="6"/>
<path d="M270.773 87.1867C278.94 47.02 336.502 -18.3134 365.002 25.6866C387.132 59.852 348.273 91.1867 270.773 87.1867Z" fill="#406081" stroke="#1E3553" stroke-width="6"/>
<path d="M261.002 84.3498C260.505 84.9521 259.002 84.3498 259.002 84.3498C250.317 80.0506 228.931 72.3163 215.002 62.6866C200.193 52.4488 190.789 43.6865 198.502 32.6866C202.008 27.6871 208.502 25.6866 227.002 44.6866C238.349 55.2996 241.502 74.6866 260.502 82.3279C260.502 82.3279 261.52 83.7225 261.002 84.3498Z" fill="#EFF4F3" stroke="#1E3553" stroke-width="6"/>
<path d="M267.002 71.6866C275.093 71.6866 281.502 78.036 281.502 85.6866C281.502 93.3372 275.093 99.6866 267.002 99.6866C258.911 99.6866 252.502 93.3372 252.502 85.6866C252.502 78.036 258.911 71.6866 267.002 71.6866Z" fill="#406081" stroke="#1E3553" stroke-width="6"/>
<path d="M278.649 84.3498C279.146 84.9522 280.649 84.3498 280.649 84.3498C280.649 84.3498 305.502 79.1865 321.002 71.6865C332.002 65.1865 353.215 54.6865 345.502 43.6865C340.002 35.843 322.502 37.1866 304.002 56.1866L279.149 82.3279C279.149 82.3279 278.131 83.7225 278.649 84.3498Z" fill="#EFF4F3" stroke="#1E3553" stroke-width="6"/>
<path d="M137.955 83.3405C163.282 82.7097 221.745 81.6167 262.679 83.6911C308.22 85.999 376.533 95.2291 396.067 97.9548C400.982 98.6406 404.463 102.979 404.185 107.877L402.342 140.301C402.042 145.587 397.486 149.622 392.185 149.238C382.603 148.544 362.341 147.075 336.248 145.177C303.547 142.799 161.648 139.106 131.162 138.331C125.934 138.198 122.002 133.91 122.002 128.834V99.7722C122.002 90.8843 129.016 83.5632 137.955 83.3405Z" fill="#C5DAE1" stroke="#1E3553" stroke-width="7"/>
<path d="M337.002 145.187C340.202 125.587 340.669 101.02 340.502 91.1866L366.502 95.1866C365.702 117.187 363.502 138.687 362.502 146.687L337.002 145.187Z" fill="#7D97AB" stroke="#1E3553" stroke-width="6"/>
<path d="M214.502 140.687C214.902 113.887 218.336 90.8533 220.002 82.6866L255.002 83.6866C255.002 83.6866 250.169 122.187 249.502 140.687H214.502Z" fill="#406081" stroke="#1E3553" stroke-width="6"/>
<path d="M366.502 95.1866C365.702 117.187 363.502 138.687 362.502 146.687C369.669 147.853 386.202 150.087 395.002 149.687C406.002 149.187 403.502 107.687 403.002 101.687C402.602 96.8866 378.502 95.3533 366.502 95.1866Z" fill="#647F94" stroke="#1E3553" stroke-width="6"/>
<path d="M324.502 301.687C319.502 306.187 137.002 293.687 126.502 284.687C122.102 239.887 128.336 169.02 132.002 139.187C210.802 138.387 301.169 144.187 336.502 147.187C336.002 216.187 329.502 297.187 324.502 301.687Z" fill="#C9D9DF" stroke="#1E3553" stroke-width="6"/>
<path d="M357.002 213.687C354.602 210.487 359.336 169.02 362.002 148.687C371.169 148.52 389.902 148.687 391.502 150.687C392.734 152.226 391.311 200.971 388.052 239.954C388.506 246.833 388.878 247.794 386.87 252.79C384.998 271.175 382.673 285.33 380.002 287.687C373.202 293.687 361.002 296.187 355.502 296.187C355.102 293.787 356.169 264.659 357.002 250.895C362.968 254.434 367.529 260.588 369.502 264.187C374.336 262.687 384.502 258.487 386.502 253.687C386.633 253.373 386.755 253.075 386.87 252.79C387.287 248.694 387.681 244.387 388.052 239.954C388.035 239.706 388.019 239.45 388.002 239.187C387.502 231.187 360.002 217.687 357.002 213.687Z" fill="#647F94"/>
<path d="M362.002 148.687C359.336 169.02 354.602 210.487 357.002 213.687C360.002 217.687 387.502 231.187 388.002 239.187C388.502 247.187 389.002 247.687 386.502 253.687C384.502 258.487 374.336 262.687 369.502 264.187C367.529 260.588 362.968 254.434 357.002 250.895C356.169 264.659 355.102 293.787 355.502 296.187C361.002 296.187 373.202 293.687 380.002 287.687C388.502 280.187 393.502 153.187 391.502 150.687C389.902 148.687 371.169 148.52 362.002 148.687Z" stroke="#1E3553" stroke-width="6"/>
<path d="M355.502 296.187C361.002 296.187 373.202 293.687 380.002 287.687C383.669 270.187 391.002 229.587 391.002 207.187C391.002 207.187 447.002 214.187 484.502 256.687C490.83 263.858 471.977 278.245 465.574 283.132L465.502 283.187C456.002 293.687 435.502 290.687 432.502 290.687C429.502 290.687 411.002 292.187 405.002 302.687C400.202 311.087 384.336 313.52 377.002 313.687C347.002 310.087 350.169 300.52 355.502 296.187Z" fill="#2B4F73" stroke="#1E3553" stroke-width="6"/>
<path d="M409.502 182.687C397.902 179.887 393.002 181.52 392.002 182.687L391.002 207.187C417.002 207.187 446.502 247.187 484.502 256.687C514.902 264.287 535.169 218.187 541.502 194.187C530.836 198.52 503.702 207.187 480.502 207.187C451.502 207.187 424.002 186.187 409.502 182.687Z" fill="#406081" stroke="#1E3553" stroke-width="6"/>
<ellipse cx="162.002" cy="215.687" rx="14.5" ry="14" fill="#9EB9C8"/>
<ellipse cx="295.002" cy="221.687" rx="14.5" ry="14" fill="#9EB9C8"/>
<ellipse cx="187.002" cy="187.687" rx="10.5" ry="13" transform="rotate(17.6391 187.002 187.687)" fill="#1E3553"/>
<ellipse cx="10.5" cy="13" rx="10.5" ry="13" transform="matrix(-0.999213 -0.0396632 -0.0396632 0.999213 286.517 179.52)" fill="#1E3553"/>
<path d="M211.811 210.633C211.229 209.082 209.5 208.296 207.949 208.878C206.397 209.459 205.611 211.189 206.193 212.74L209.002 211.687L211.811 210.633ZM251.993 209.947C251.861 208.296 250.415 207.064 248.763 207.196C247.111 207.328 245.88 208.774 246.012 210.426L249.002 210.187L251.993 209.947ZM209.002 211.687L206.193 212.74C207.779 216.969 210.337 221.874 213.966 225.643C217.63 229.447 222.606 232.291 228.801 231.672L228.502 228.687L228.204 225.701C224.398 226.082 221.125 224.426 218.288 221.481C215.417 218.499 213.225 214.404 211.811 210.633L209.002 211.687ZM228.502 228.687L228.801 231.672C234.103 231.141 240.064 229.537 244.653 226.167C249.396 222.684 252.585 217.346 251.993 209.947L249.002 210.187L246.012 210.426C246.42 215.528 244.358 218.939 241.101 221.331C237.69 223.836 232.902 225.232 228.204 225.701L228.502 228.687ZM125.502 226.687L126.697 223.935C120.443 221.219 110.516 216.491 101.133 211.165C91.609 205.759 83.1334 200.003 79.336 195.302L77.0022 197.187L74.6684 199.072C79.271 204.77 88.712 211.014 98.1713 216.383C107.772 221.832 117.895 226.654 124.307 229.438L125.502 226.687Z" fill="#1E3553"/>
<path d="M198.502 295.187C197.502 308.353 196.102 337.787 198.502 350.187M289.502 301.687C292.335 311.853 303.102 333.387 323.502 338.187" stroke="#1E3553" stroke-width="6"/>
<ellipse cx="258.502" cy="357.187" rx="121" ry="9.5" fill="#C9D9DF"/>
<path d="M206.502 350.187C206.502 358.187 198.667 358.687 189.002 358.687C179.337 358.687 173.002 358.687 172.002 353.187C171.002 347.687 172.837 342.687 182.502 342.687C199.002 341.687 206.502 345.768 206.502 350.187Z" fill="#1E3553"/>
<path d="M326.002 354.687C321.866 359.865 311.886 363.789 308.002 360.687C302.002 357.187 305.855 348.241 309.991 343.063C314.127 337.884 323.618 330.585 327.502 333.687C331.386 336.789 333.279 345.577 326.002 354.687Z" fill="#1E3553"/>
<path d="M324.502 301.687C329.502 297.187 336.002 216.187 336.502 147.187L362.002 148.687C359.336 169.02 354.602 210.487 357.002 213.687C360.002 217.687 387.502 231.187 388.002 239.187C388.502 247.187 389.002 247.687 386.502 253.687C384.502 258.487 374.336 262.687 369.502 264.187C367.529 260.588 362.968 254.434 357.002 250.895C356.169 264.659 354.602 292.787 355.002 295.187C355.502 298.187 334.502 301.687 324.502 301.687Z" fill="#7D97AB"/>
<path d="M349.498 248.26C349.168 248.225 353.669 248.393 348.502 248.187C343.335 247.98 345 248.069 349.498 248.26ZM349.498 248.26C352.165 248.544 354.689 249.523 357.002 250.895M357.002 250.895C362.968 254.434 367.529 260.588 369.502 264.187C374.336 262.687 384.502 258.487 386.502 253.687C389.002 247.687 388.502 247.187 388.002 239.187C387.502 231.187 360.002 217.687 357.002 213.687C354.602 210.487 359.336 169.02 362.002 148.687L336.502 147.187C336.002 216.187 329.502 297.187 324.502 301.687C334.502 301.687 355.502 298.187 355.002 295.187C354.602 292.787 356.169 264.659 357.002 250.895Z" stroke="#1E3553" stroke-width="6"/>
<path d="M63.5022 149.687C78.7022 157.287 76.5022 170.187 73.5022 175.687C64.5022 200.187 63.5022 211.187 64.5022 228.187C65.3022 241.787 51.1689 255.853 44.0022 261.187C40.5022 263.187 32.2022 269.087 27.0022 276.687C21.8022 284.287 28.5022 296.853 32.5022 302.187L17.0022 312.687C15.3355 311.52 10.4022 305.387 4.0022 290.187C-3.9978 271.187 38.5022 242.687 42.5022 233.687C46.5022 224.687 40.0022 216.687 34.5022 204.687C29.0022 192.687 31.0022 186.187 31.0022 178.187C31.0022 170.187 44.5022 140.187 63.5022 149.687Z" fill="#C9D9DF" stroke="#1E3553" stroke-width="6"/>
<path d="M61.5022 169.687C67.9037 169.687 73.5674 172.35 77.6428 176.152C81.7715 180.005 84.0022 184.759 84.0022 188.687C84.0022 192.715 81.9975 197.124 78.6409 200.572C75.2951 204.01 70.906 206.187 66.5022 206.187C62.1135 206.187 57.8626 204.023 54.6487 200.608C51.4237 197.182 49.5022 192.765 49.5022 188.687C49.5022 184.068 50.497 179.116 52.5764 175.434C54.6015 171.847 57.479 169.687 61.5022 169.687Z" fill="#406081" stroke="#1E3553" stroke-width="6"/>
</svg>
